<svg xmlns="http://www.w3.org/2000/svg" width="512" height="512" viewBox="0 0 512 512" shape-rendering="geometricPrecision"><rect width="512" height="512" fill="#0a0a0a"/><circle cx="19.69" cy="19.69" r="15.75" fill="rgb(58,58,58)"/><circle cx="59.08" cy="19.69" r="15.75" fill="rgb(46,46,46)"/><circle cx="98.46" cy="19.69" r="15.75" fill="rgb(35,35,35)"/><circle cx="137.85" cy="19.69" r="15.75" fill="rgb(23,23,23)"/><circle cx="177.23" cy="19.69" r="15.75" fill="rgb(40,40,40)"/><circle cx="216.62" cy="19.69" r="15.75" fill="rgb(60,60,60)"/><circle cx="256.00" cy="19.69" r="15.75" fill="rgb(24,24,24)"/><circle cx="295.38" cy="19.69" r="15.75" fill="rgb(49,49,49)"/><circle cx="334.77" cy="19.69" r="15.75" fill="rgb(43,43,43)"/><circle cx="374.15" cy="19.69" r="15.75" fill="rgb(51,51,51)"/><circle cx="413.54" cy="19.69" r="15.75" fill="rgb(48,48,48)"/><circle cx="452.92" cy="19.69" r="15.75" fill="rgb(54,54,54)"/><circle cx="492.31" cy="19.69" r="15.75" fill="rgb(42,42,42)"/><circle cx="19.69" cy="59.08" r="15.75" fill="rgb(60,60,60)"/><circle cx="59.08" cy="59.08" r="15.75" fill="rgb(57,57,57)"/><circle cx="98.46" cy="59.08" r="15.75" fill="rgb(48,48,48)"/><circle cx="137.85" cy="59.08" r="15.75" fill="rgb(55,55,55)"/><circle cx="177.23" cy="59.08" r="15.75" fill="rgb(52,52,52)"/><circle cx="216.62" cy="59.08" r="15.75" fill="rgb(56,56,56)"/><circle cx="256.00" cy="59.08" r="15.75" fill="rgb(39,39,39)"/><circle cx="295.38" cy="59.08" r="15.75" fill="rgb(30,30,30)"/><circle cx="334.77" cy="59.08" r="15.75" fill="rgb(23,23,23)"/><circle cx="374.15" cy="59.08" r="15.75" fill="rgb(24,24,24)"/><circle cx="413.54" cy="59.08" r="15.75" fill="rgb(36,36,36)"/><circle cx="452.92" cy="59.08" r="15.75" fill="rgb(40,40,40)"/><circle cx="492.31" cy="59.08" r="15.75" fill="rgb(59,59,59)"/><circle cx="19.69" cy="98.46" r="15.75" fill="rgb(36,36,36)"/><circle cx="59.08" cy="98.46" r="15.75" fill="rgb(23,23,23)"/><circle cx="98.46" cy="98.46" r="15.75" fill="rgb(60,60,60)"/><circle cx="137.85" cy="98.46" r="15.75" fill="rgb(23,23,23)"/><circle cx="177.23" cy="98.46" r="15.75" fill="rgb(24,24,24)"/><circle cx="216.62" cy="98.46" r="15.75" fill="rgb(53,53,53)"/><circle cx="256.00" cy="98.46" r="15.75" fill="rgb(38,38,38)"/><circle cx="295.38" cy="98.46" r="15.75" fill="rgb(29,29,29)"/><circle cx="334.77" cy="98.46" r="15.75" fill="rgb(39,39,39)"/><circle cx="374.15" cy="98.46" r="15.75" fill="rgb(59,59,59)"/><circle cx="413.54" cy="98.46" r="15.75" fill="rgb(27,27,27)"/><circle cx="452.92" cy="98.46" r="15.75" fill="rgb(20,20,20)"/><circle cx="492.31" cy="98.46" r="15.75" fill="rgb(48,48,48)"/><circle cx="19.69" cy="137.85" r="15.75" fill="rgb(50,50,50)"/><circle cx="59.08" cy="137.85" r="15.75" fill="rgb(49,49,49)"/><circle cx="98.46" cy="137.85" r="15.75" fill="rgb(33,33,33)"/><circle cx="137.85" cy="137.85" r="15.75" fill="rgb(49,49,49)"/><circle cx="177.23" cy="137.85" r="15.75" fill="rgb(241,241,241)"/><circle cx="216.62" cy="137.85" r="15.75" fill="rgb(31,31,31)"/><circle cx="256.00" cy="137.85" r="15.75" fill="rgb(42,42,42)"/><circle cx="295.38" cy="137.85" r="15.75" fill="rgb(23,23,23)"/><circle cx="334.77" cy="137.85" r="15.75" fill="rgb(248,248,248)"/><circle cx="374.15" cy="137.85" r="15.75" fill="rgb(30,30,30)"/><circle cx="413.54" cy="137.85" r="15.75" fill="rgb(34,34,34)"/><circle cx="452.92" cy="137.85" r="15.75" fill="rgb(56,56,56)"/><circle cx="492.31" cy="137.85" r="15.75" fill="rgb(54,54,54)"/><circle cx="19.69" cy="177.23" r="15.75" fill="rgb(58,58,58)"/><circle cx="59.08" cy="177.23" r="15.75" fill="rgb(55,55,55)"/><circle cx="98.46" cy="177.23" r="15.75" fill="rgb(58,58,58)"/><circle cx="137.85" cy="177.23" r="15.75" fill="rgb(54,54,54)"/><circle cx="177.23" cy="177.23" r="15.75" fill="rgb(252,252,252)"/><circle cx="216.62" cy="177.23" r="15.75" fill="rgb(47,47,47)"/><circle cx="256.00" cy="177.23" r="15.75" fill="rgb(38,38,38)"/><circle cx="295.38" cy="177.23" r="15.75" fill="rgb(45,45,45)"/><circle cx="334.77" cy="177.23" r="15.75" fill="rgb(237,237,237)"/><circle cx="374.15" cy="177.23" r="15.75" fill="rgb(45,45,45)"/><circle cx="413.54" cy="177.23" r="15.75" fill="rgb(57,57,57)"/><circle cx="452.92" cy="177.23" r="15.75" fill="rgb(40,40,40)"/><circle cx="492.31" cy="177.23" r="15.75" fill="rgb(45,45,45)"/><circle cx="19.69" cy="216.62" r="15.75" fill="rgb(57,57,57)"/><circle cx="59.08" cy="216.62" r="15.75" fill="rgb(47,47,47)"/><circle cx="98.46" cy="216.62" r="15.75" fill="rgb(56,56,56)"/><circle cx="137.85" cy="216.62" r="15.75" fill="rgb(54,54,54)"/><circle cx="177.23" cy="216.62" r="15.75" fill="rgb(244,244,244)"/><circle cx="216.62" cy="216.62" r="15.75" fill="rgb(234,234,234)"/><circle cx="256.00" cy="216.62" r="15.75" fill="rgb(20,20,20)"/><circle cx="295.38" cy="216.62" r="15.75" fill="rgb(43,43,43)"/><circle cx="334.77" cy="216.62" r="15.75" fill="rgb(232,232,232)"/><circle cx="374.15" cy="216.62" r="15.75" fill="rgb(43,43,43)"/><circle cx="413.54" cy="216.62" r="15.75" fill="rgb(18,18,18)"/><circle cx="452.92" cy="216.62" r="15.75" fill="rgb(40,40,40)"/><circle cx="492.31" cy="216.62" r="15.75" fill="rgb(34,34,34)"/><circle cx="19.69" cy="256.00" r="15.75" fill="rgb(55,55,55)"/><circle cx="59.08" cy="256.00" r="15.75" fill="rgb(25,25,25)"/><circle cx="98.46" cy="256.00" r="15.75" fill="rgb(47,47,47)"/><circle cx="137.85" cy="256.00" r="15.75" fill="rgb(32,32,32)"/><circle cx="177.23" cy="256.00" r="15.75" fill="rgb(237,237,237)"/><circle cx="216.62" cy="256.00" r="15.75" fill="rgb(39,39,39)"/><circle cx="256.00" cy="256.00" r="15.75" fill="rgb(232,232,232)"/><circle cx="295.38" cy="256.00" r="15.75" fill="rgb(36,36,36)"/><circle cx="334.77" cy="256.00" r="15.75" fill="rgb(239,239,239)"/><circle cx="374.15" cy="256.00" r="15.75" fill="rgb(29,29,29)"/><circle cx="413.54" cy="256.00" r="15.75" fill="rgb(40,40,40)"/><circle cx="452.92" cy="256.00" r="15.75" fill="rgb(34,34,34)"/><circle cx="492.31" cy="256.00" r="15.75" fill="rgb(23,23,23)"/><circle cx="19.69" cy="295.38" r="15.75" fill="rgb(50,50,50)"/><circle cx="59.08" cy="295.38" r="15.75" fill="rgb(42,42,42)"/><circle cx="98.46" cy="295.38" r="15.75" fill="rgb(53,53,53)"/><circle cx="137.85" cy="295.38" r="15.75" fill="rgb(22,22,22)"/><circle cx="177.23" cy="295.38" r="15.75" fill="rgb(254,254,254)"/><circle cx="216.62" cy="295.38" r="15.75" fill="rgb(23,23,23)"/><circle cx="256.00" cy="295.38" r="15.75" fill="rgb(61,61,61)"/><circle cx="295.38" cy="295.38" r="15.75" fill="rgb(244,244,244)"/><circle cx="334.77" cy="295.38" r="15.75" fill="rgb(242,242,242)"/><circle cx="374.15" cy="295.38" r="15.75" fill="rgb(38,38,38)"/><circle cx="413.54" cy="295.38" r="15.75" fill="rgb(21,21,21)"/><circle cx="452.92" cy="295.38" r="15.75" fill="rgb(35,35,35)"/><circle cx="492.31" cy="295.38" r="15.75" fill="rgb(23,23,23)"/><circle cx="19.69" cy="334.77" r="15.75" fill="rgb(28,28,28)"/><circle cx="59.08" cy="334.77" r="15.75" fill="rgb(53,53,53)"/><circle cx="98.46" cy="334.77" r="15.75" fill="rgb(40,40,40)"/><circle cx="137.85" cy="334.77" r="15.75" fill="rgb(54,54,54)"/><circle cx="177.23" cy="334.77" r="15.75" fill="rgb(254,254,254)"/><circle cx="216.62" cy="334.77" r="15.75" fill="rgb(18,18,18)"/><circle cx="256.00" cy="334.77" r="15.75" fill="rgb(29,29,29)"/><circle cx="295.38" cy="334.77" r="15.75" fill="rgb(54,54,54)"/><circle cx="334.77" cy="334.77" r="15.75" fill="rgb(235,235,235)"/><circle cx="374.15" cy="334.77" r="15.75" fill="rgb(41,41,41)"/><circle cx="413.54" cy="334.77" r="15.75" fill="rgb(60,60,60)"/><circle cx="452.92" cy="334.77" r="15.75" fill="rgb(44,44,44)"/><circle cx="492.31" cy="334.77" r="15.75" fill="rgb(44,44,44)"/><circle cx="19.69" cy="374.15" r="15.75" fill="rgb(20,20,20)"/><circle cx="59.08" cy="374.15" r="15.75" fill="rgb(51,51,51)"/><circle cx="98.46" cy="374.15" r="15.75" fill="rgb(47,47,47)"/><circle cx="137.85" cy="374.15" r="15.75" fill="rgb(51,51,51)"/><circle cx="177.23" cy="374.15" r="15.75" fill="rgb(254,254,254)"/><circle cx="216.62" cy="374.15" r="15.75" fill="rgb(50,50,50)"/><circle cx="256.00" cy="374.15" r="15.75" fill="rgb(51,51,51)"/><circle cx="295.38" cy="374.15" r="15.75" fill="rgb(49,49,49)"/><circle cx="334.77" cy="374.15" r="15.75" fill="rgb(232,232,232)"/><circle cx="374.15" cy="374.15" r="15.75" fill="rgb(23,23,23)"/><circle cx="413.54" cy="374.15" r="15.75" fill="rgb(42,42,42)"/><circle cx="452.92" cy="374.15" r="15.75" fill="rgb(26,26,26)"/><circle cx="492.31" cy="374.15" r="15.75" fill="rgb(26,26,26)"/><circle cx="19.69" cy="413.54" r="15.75" fill="rgb(33,33,33)"/><circle cx="59.08" cy="413.54" r="15.75" fill="rgb(36,36,36)"/><circle cx="98.46" cy="413.54" r="15.75" fill="rgb(49,49,49)"/><circle cx="137.85" cy="413.54" r="15.75" fill="rgb(34,34,34)"/><circle cx="177.23" cy="413.54" r="15.75" fill="rgb(57,57,57)"/><circle cx="216.62" cy="413.54" r="15.75" fill="rgb(56,56,56)"/><circle cx="256.00" cy="413.54" r="15.75" fill="rgb(29,29,29)"/><circle cx="295.38" cy="413.54" r="15.75" fill="rgb(43,43,43)"/><circle cx="334.77" cy="413.54" r="15.75" fill="rgb(33,33,33)"/><circle cx="374.15" cy="413.54" r="15.75" fill="rgb(25,25,25)"/><circle cx="413.54" cy="413.54" r="15.75" fill="rgb(24,24,24)"/><circle cx="452.92" cy="413.54" r="15.75" fill="rgb(39,39,39)"/><circle cx="492.31" cy="413.54" r="15.75" fill="rgb(46,46,46)"/><circle cx="19.69" cy="452.92" r="15.75" fill="rgb(37,37,37)"/><circle cx="59.08" cy="452.92" r="15.75" fill="rgb(56,56,56)"/><circle cx="98.46" cy="452.92" r="15.75" fill="rgb(58,58,58)"/><circle cx="137.85" cy="452.92" r="15.75" fill="rgb(39,39,39)"/><circle cx="177.23" cy="452.92" r="15.75" fill="rgb(40,40,40)"/><circle cx="216.62" cy="452.92" r="15.75" fill="rgb(42,42,42)"/><circle cx="256.00" cy="452.92" r="15.75" fill="rgb(31,31,31)"/><circle cx="295.38" cy="452.92" r="15.75" fill="rgb(28,28,28)"/><circle cx="334.77" cy="452.92" r="15.75" fill="rgb(32,32,32)"/><circle cx="374.15" cy="452.92" r="15.75" fill="rgb(20,20,20)"/><circle cx="413.54" cy="452.92" r="15.75" fill="rgb(54,54,54)"/><circle cx="452.92" cy="452.92" r="15.75" fill="rgb(36,36,36)"/><circle cx="492.31" cy="452.92" r="15.75" fill="rgb(57,57,57)"/><circle cx="19.69" cy="492.31" r="15.75" fill="rgb(33,33,33)"/><circle cx="59.08" cy="492.31" r="15.75" fill="rgb(30,30,30)"/><circle cx="98.46" cy="492.31" r="15.75" fill="rgb(30,30,30)"/><circle cx="137.85" cy="492.31" r="15.75" fill="rgb(60,60,60)"/><circle cx="177.23" cy="492.31" r="15.75" fill="rgb(42,42,42)"/><circle cx="216.62" cy="492.31" r="15.75" fill="rgb(59,59,59)"/><circle cx="256.00" cy="492.31" r="15.75" fill="rgb(60,60,60)"/><circle cx="295.38" cy="492.31" r="15.75" fill="rgb(36,36,36)"/><circle cx="334.77" cy="492.31" r="15.75" fill="rgb(57,57,57)"/><circle cx="374.15" cy="492.31" r="15.75" fill="rgb(48,48,48)"/><circle cx="413.54" cy="492.31" r="15.75" fill="rgb(32,32,32)"/><circle cx="452.92" cy="492.31" r="15.75" fill="rgb(24,24,24)"/><circle cx="492.31" cy="492.31" r="15.75" fill="rgb(57,57,57)"/></svg>
